<svg id="svg2" xmlns="http://www.w3.org/2000/svg" height="194.72" width="153.54"><defs id="defs4"><radialGradient id="radialGradient7757" gradientUnits="userSpaceOnUse" cy="133.64" cx="368" gradientTransform="matrix(1 0 0 1.08583 0 -11.471)" r="102.55"><stop id="stop7109" stop-color="#87cdde" offset="0"/><stop id="stop7111" stop-color="#87cdde" stop-opacity="0" offset="1"/></radialGradient><radialGradient id="radialGradient7759" gradientUnits="userSpaceOnUse" cy="133.64" cx="368" gradientTransform="matrix(1 0 0 1.08583 0 -11.471)" r="102.55"><stop id="stop6333" stop-color="#04bafb" stop-opacity="0" offset="0"/><stop id="stop6335" stop-color="#bdd7fd" offset="1"/></radialGradient><linearGradient id="linearGradient7763" y2="245.27" gradientUnits="userSpaceOnUse" x2="406.5" y1="245.27" x1="328.85"><stop id="stop7061" stop-color="#87cdde" offset="0"/><stop id="stop7063" stop-color="#87cdde" stop-opacity="0" offset="1"/></linearGradient><linearGradient id="linearGradient7765" y2="252.28" gradientUnits="userSpaceOnUse" x2="406.15" y1="252.28" x1="330.49"><stop id="stop7069" stop-color="#87cdde" offset="0"/><stop id="stop7071" stop-color="#87cdde" stop-opacity="0" offset="1"/></linearGradient><linearGradient id="linearGradient7767" y2="259.87" gradientUnits="userSpaceOnUse" x2="403.82" y1="259.87" x1="331.89"><stop id="stop7077" stop-color="#87cdde" offset="0"/><stop id="stop7079" stop-color="#87cdde" stop-opacity="0" offset="1"/></linearGradient><linearGradient id="linearGradient7769" y2="267.23" gradientUnits="userSpaceOnUse" x2="403.35" y1="267.23" x1="333.29"><stop id="stop7085" stop-color="#87cdde" offset="0"/><stop id="stop7087" stop-color="#87cdde" stop-opacity="0" offset="1"/></linearGradient><linearGradient id="linearGradient7771" y2="274.36" gradientUnits="userSpaceOnUse" x2="404.05" y1="274.36" x1="334.23"><stop id="stop7093" stop-color="#87cdde" offset="0"/><stop id="stop7095" stop-color="#87cdde" stop-opacity="0" offset="1"/></linearGradient><linearGradient id="linearGradient7773" y2="280.32" gradientUnits="userSpaceOnUse" x2="401.36" y1="280.32" x1="334.93"><stop id="stop7101" stop-color="#87cdde" offset="0"/><stop id="stop7103" stop-color="#87cdde" stop-opacity="0" offset="1"/></linearGradient><radialGradient id="radialGradient7775" gradientUnits="userSpaceOnUse" cy="426.58" cx="531.18" gradientTransform="matrix(-.32127 .25608 -.09055 -.11265 537.232 14.404)" r="68.379"><stop id="stop6504" stop-color="#FFF" stop-opacity=".559" offset="0"/><stop id="stop6506" stop-color="#FFF" stop-opacity="0" offset="1"/></radialGradient><radialGradient id="radialGradient7777" gradientUnits="userSpaceOnUse" cy="426.58" cx="531.18" gradientTransform="matrix(-.79353 .57038 -.26885 -.16525 860.554 -161.479)" r="68.379"><stop id="stop6504-1" stop-color="#FFF" stop-opacity=".559" offset="0"/><stop id="stop6506-8" stop-color="#FFF" stop-opacity="0" offset="1"/></radialGradient><filter id="filter3032" height="1" width="1" color-interpolation-filters="sRGB" y="0" x="0"><feColorMatrix id="feColorMatrix3034" values="0" type="saturate"/></filter></defs><g id="g6514" filter="url(#filter3032)" transform="translate(-16.83 -7.071)"><g id="g7737" transform="matrix(.8648 0 0 .85247 -196.913 -35.048)"><g id="g6860" transform="matrix(.69871 0 0 .71133 95.925 63.504)"><path id="path3171" d="M398.46 299.98c-.087.638-.187 1.304-.188 1.313.02-.025.043-.038.063-.063 0 0 .121-1.196.125-1.25z" fill="#CCC"/><path id="path2993" opacity=".875" d="M366.77 23.291c-60.109 0-100.74 50.733-100.31 107.81.37 49.256 48.18 82.609 59.094 104.81l-.031-.094s1.544.557 4.125 1.375 6.213 1.908 10.344 2.97c4.13 1.06 8.757 2.082 13.406 2.812 2.324.364 4.645.67 6.906.843 2.26.174 4.463.214 6.531.125 4.137-.178 8.76-.76 13.375-1.53 4.616-.772 9.227-1.718 13.312-2.657 8.066-1.853 13.94-3.58 14.094-3.625 11.487-22.082 61.748-49.797 61.938-105.03.21-58.581-37.94-107.8-102.77-107.8z" stroke="url(#radialGradient7759)" stroke-width="2" fill="url(#radialGradient7757)"/><path id="path6624" d="M408.25 236.75c-.155.033-6.075 1.313-14.204 2.685a305.481 305.481 0 0 1-13.416 1.968c-4.652.571-9.31 1.003-13.479 1.135a75.288 75.288 0 0 1-6.582-.093c-2.279-.129-4.618-.355-6.96-.625-4.685-.54-9.349-1.297-13.511-2.084a255.433 255.433 0 0 1-10.424-2.199c-2.6-.606-4.157-1.019-4.157-1.019l.031.07c.152.227.366.47.504.694.332.542.657 1.185.975 1.915.317.73 2.659 1.594 2.945 2.438.287.844-1.419 1.852-1.133 2.873.286 1.021 2.594 2.165 2.85 3.228.254 1.063-1.486 2.29-1.234 3.488s2.523 2.502 2.744 3.675c.22 1.174-1.558 2.5-1.343 3.76.215 1.261 2.447 2.604 2.63 3.78.185 1.176-1.634 2.48-1.46 3.689.175 1.21 2.365 2.47 2.51 3.541.144 1.072-1.72 2.232-1.587 3.276.132 1.043 2.275 2.098 2.378 2.959.103.86-1.807 1.756-1.72 2.52.086.763 2.18 1.488 2.24 2.032.058.544-1.903 1.054-1.865 1.423l.077.755c.076.46.189 1.088.189 1.088s5.258 1.498 11.842 2.987c3.292.744 6.905 1.478 10.361 2.037 1.728.28 3.423.53 5.007.694 1.585.164 3.061.254 4.378.255 1.317.002 2.793-.094 4.378-.255a89.12 89.12 0 0 0 5.007-.67c3.457-.553 7.07-1.278 10.361-2.015 6.569-1.471 11.817-2.956 11.842-2.963.01-.01.021-.014.032-.024 0-.006.1-.5.189-.972.01-.104.031-.34.066-.691.034-.351-1.932-.863-1.878-1.396.055-.533 2.144-1.231 2.226-1.988.082-.757-1.833-1.668-1.735-2.527.1-.86 2.238-1.896 2.366-2.942.129-1.046-1.738-2.228-1.596-3.305.141-1.078 2.328-2.328 2.502-3.546.173-1.218-1.647-2.546-1.463-3.732.184-1.186 2.417-2.527 2.634-3.8.217-1.273-1.558-2.62-1.333-3.806.225-1.186 2.502-2.493 2.762-3.704.259-1.211-1.472-2.456-1.208-3.53.265-1.075 2.586-2.225 2.886-3.257.3-1.032-1.392-2.057-1.086-2.904.306-.847 2.666-1.722 3.005-2.458.34-.736.69-1.383 1.048-1.928.114-.173.286-.357.41-.532z" fill="#afdde9"/><path id="path6572" d="M329.75 241.89c8.794 2.958 32.448 4.447 36.864 4.251 8.566.907 33.927-2.01 39.889-3.85v.103c-7.412 4.763-35.295 6.77-40.107 6.143-4.25 0-37.543-2.239-37.543-4.999.222-.446.248-.633.896-1.648z" fill="url(#linearGradient7763)" fill-rule="evenodd"/><path id="path6572-5" d="M331.36 248.9c8.57 2.958 31.618 4.447 35.921 4.251 8.347.907 33.059-2.01 38.869-3.85v.103c-7.223 4.763-34.392 6.77-39.08 6.143-4.142 0-36.583-2.239-36.583-4.999.216-.446.242-.633.874-1.648z" fill="url(#linearGradient7765)" fill-rule="evenodd"/><path id="path6572-9" d="M332.72 256.49c8.146 2.958 30.056 4.447 34.146 4.251 7.935.907 31.425-2.01 36.948-3.85v.104c-6.866 4.762-32.693 6.769-37.15 6.143-3.936 0-34.775-2.24-34.775-5 .205-.446.23-.633.83-1.648z" fill="url(#linearGradient7767)" fill-rule="evenodd"/><path id="path6572-7" d="M334.1 263.85c7.934 2.958 29.275 4.447 33.258 4.251 7.728.907 30.609-2.01 35.988-3.85v.104c-6.687 4.762-31.843 6.769-36.184 6.143-3.834 0-33.87-2.24-33.87-5 .199-.446.223-.633.808-1.648z" fill="url(#linearGradient7769)" fill-rule="evenodd"/><path id="path6572-0" d="M335.03 270.98c7.908 2.958 29.177 4.447 33.147 4.251 7.703.907 30.506-2.01 35.868-3.85v.104c-6.665 4.762-31.737 6.769-36.064 6.143-3.821 0-33.758-2.24-33.758-5 .2-.446.223-.633.806-1.648z" fill="url(#linearGradient7771)" fill-rule="evenodd"/><path id="path6572-57" d="M335.7 276.94c7.524 2.958 27.761 4.447 31.539 4.251 7.329.907 29.026-2.01 34.127-3.85v.104c-6.342 4.762-30.197 6.769-34.314 6.143-3.636 0-32.12-2.24-32.12-5 .19-.446.212-.633.767-1.648z" fill="url(#linearGradient7773)" fill-rule="evenodd"/><path id="path3173" d="M398.83 283.6c-.025.007-5.275 1.498-11.845 2.976-3.293.74-6.907 1.468-10.365 2.022a88.824 88.824 0 0 1-5.01.674c-1.584.161-3.06.257-4.378.256a43.699 43.699 0 0 1-4.38-.256c-1.584-.164-3.28-.416-5.008-.697-3.458-.562-7.072-1.299-10.365-2.046-6.586-1.495-11.845-2.999-11.845-2.999s-.114-.631-.19-1.092c.007.062.158 1.162.158 1.162 9.535 12.945 31.843 15.97 31.82 15.715 0 0 14.324-.446 31.408-15.715z" fill="#d7eef4"/><path id="path6516" opacity=".53" fill="url(#radialGradient7775)" d="M345.44 110.62c-11.429 14.034-29.998 20.776-36.765 17.649-6.767-3.127-8.987-21.052 2.442-35.086s32.178-18.863 38.945-15.736c6.767 3.127 6.806 19.138-4.623 33.173z"/><path id="path6516-9" d="M372.99 79.083c-27.024 28.976-74.859 47.728-93.656 44.713-18.797-3.015-29.097-33.811-2.073-62.787s81.138-45.158 99.936-42.144c18.797 3.015 22.818 31.242-4.206 60.218z" fill="url(#radialGradient7777)"/></g><path id="path7692" opacity=".552" d="M267.68 97.269l-35.95-13.511-26.998 27.312 1.74-38.365-34.317-17.237 37.025-10.2 5.788-37.965 21.142 32.061 37.896-6.227-23.959 30.014z" stroke-opacity=".169" transform="matrix(.62412 0 0 .62228 145.31 66.97)" stroke="#2c89a0" stroke-width="2.3" fill="#d7eef4"/><path id="path7692-0" opacity=".534" d="M267.68 97.269l-35.95-13.511-26.998 27.312 1.74-38.365-34.317-17.237 37.025-10.2 5.788-37.965 21.142 32.061 37.896-6.227-23.959 30.014z" stroke-opacity=".169" transform="matrix(.41818 .05924 -.06812 .48087 179.462 103.642)" stroke="#2c89a0" stroke-width="2.3" fill="#d7eef4"/><path id="path7692-9" opacity=".627" d="M267.68 97.269l-35.95-13.511-26.998 27.312 1.74-38.365-34.317-17.237 37.025-10.2 5.788-37.965 21.142 32.061 37.896-6.227-23.959 30.014z" stroke-opacity=".169" transform="matrix(.49704 .5688 -.55899 .48846 252.754 -74.74)" stroke="#2c89a0" stroke-width="2.3" fill="#d7eef4"/><path id="path7692-0-6" opacity=".373" d="M267.68 97.269l-35.95-13.511-26.998 27.312 1.74-38.365-34.317-17.237 37.025-10.2 5.788-37.965 21.142 32.061 37.896-6.227-23.959 30.014z" stroke-opacity=".169" transform="matrix(.26696 .03131 -.04348 .25419 212.785 161.238)" stroke="#2c89a0" stroke-width="2.3" fill="#d7eef4"/></g></g></svg>