<svg id="svg2" xmlns="http://www.w3.org/2000/svg" height="172.22" width="208.22"><defs id="defs4"><filter id="filter2989" height="1" width="1" color-interpolation-filters="sRGB" y="0" x="0"><feColorMatrix id="feColorMatrix2991" values="0" type="saturate"/></filter></defs><g id="layer15" filter="url(#filter2989)" transform="translate(-523 -23.761)"><g id="g3591" transform="matrix(1.44281 0 0 1.44082 264.998 -415.918)"><path id="path3214-1" d="M250.85 310.69c-18.155.186-28.207 20.691-24.906 34.812 3.5 14.974 3.787 15.233 12.656 32.188-.452 18.184-36.84 8.01-59.781 46.998l72.281.002v-.031l72.031.002c-22.941-38.99-59.329-28.818-59.781-47.002 8.869-16.954 9.156-17.214 12.656-32.188 3.316-14.185-6.845-34.781-25.156-34.781z" fill="#d7eef4"/><path id="rect3231" d="M248.44 307.06c-5.306.133-11.836 1.485-18.406 8.25-28.672 35.194 29.419 56.973-36.25 77.375l34.469-7.75c5.29-1.548 10.688-2.44 7.75-7.813-6.27-11.464-11.319-23.61-12.5-35.625-1.483-15.09 8.961-32.635 27.062-31.875.032 0 .062.001.094 0 18.1-.759 28.514 16.784 27.03 31.875-1.18 12.015-6.23 24.161-12.5 35.625-2.937 5.373 2.461 6.265 7.75 7.813l34.47 7.75c-65.67-20.402-7.578-42.181-36.25-77.375-7.443-7.663-14.817-8.385-20.438-8.25h-.094a42.079 42.079 0 0 0-2.188 0z" fill="#afdde9"/><path id="path3240" d="M250.56 305.16c-.526-.002-1.069.019-1.563.031-22.265 1.317-30.06 19.008-31.562 37.906-.152 2.484-2.103 16.918-1.718 19.281 2.11 1.01 4.116 2.316 6.593 1.844 3.28 2.041 7.924 4.42 12.406 6.375 9.236 4.03 18 4.555 19.22 2.313 1.865-3.43-5.846-4.165-6.313-1.063-.14.924-7.407-1.095-12.844-3.469-3.924-1.712-7.32-3.602-9.969-5.187.27-.173.563-.374.844-.594-.203-1.17 1.545-9.196-2.594-9.375-3.733-.161-3.151-7.733-3.312-10.344-1.163-18.819 10.965-36.323 29.75-36.25.373.004.71-.009 1.062 0 .445-.024.8-.026 1.25-.031 18.785-.074 30.944 17.462 29.781 36.28-.161 2.612.42 10.184-3.312 10.345-4.139.178-2.391 8.204-2.594 9.375 4.146 3.244 6.959 1.207 9.937-.219.385-2.363-1.566-16.798-1.718-19.281-1.503-18.899-9.33-36.59-31.594-37.906-.563-.014-1.151-.036-1.75-.031z" fill="#5fbcd3"/><path id="rect3543-7" d="M237.69 384.53c-2.187 2.604-4.806 4.737-9.102 5.02l9.669 4.892-1 4.974c5.42.404 8.415 6.87 12.51 10.588l.265-.075z" fill="#5fbcd3"/><path id="rect3543-7-9" d="M264.04 384.51c2.187 2.604 4.806 4.737 9.102 5.02l-9.669 4.892 1 4.974c-5.42.404-8.415 6.87-12.51 10.588l-.265-.075z" fill="#5fbcd3"/></g></g></svg>